<svg width="720" height="256" xmlns="http://www.w3.org/2000/svg" xmlns:xlink="http://www.w3.org/1999/xlink" xml:space="preserve" overflow="hidden"><defs><clipPath id="clip0"><rect x="280" y="233" width="720" height="256"/></clipPath><clipPath id="clip1"><rect x="280" y="234" width="720" height="255"/></clipPath></defs><g clip-path="url(#clip0)" transform="translate(-280 -233)"><g clip-path="url(#clip1)"><path d="M281.915 114.686 232.409 167.445C229.884 163.417 227.746 157.647 225.692 150.025L259.515 113.979 228.772 76.7692C221.539 75.9366 214.309 75.2083 207.09 74.5745 207.966 71.1534 208.445 67.5252 208.445 63.7621 208.445 61.722 208.27 59.7345 208.004 57.7836 217.783 58.6373 227.595 59.6499 237.451 60.8664L281.915 114.686ZM229.413 178.024C229.918 181.333 229.525 184.735 228.202 187.662 226.163 192.208 222.086 195.449 216.724 196.754 215.909 196.958 214.992 197.182 214.033 197.406 210.861 198.145 206.988 199.056 202.745 200.438 195.965 202.646 188.233 206.097 180.829 212.033 184.676 210.166 190.784 208.453 194.906 207.414L140.957 264.907 0 114.686 40.4816 65.6871C40.7954 72.9445 42.8473 79.6405 46.1758 85.2008L22.4 113.979 59.7669 153.802C62.3206 153.182 65.1801 152.802 68.417 152.802 75.1646 152.802 82.7688 154.453 91.066 157.735 101.503 141.059 116.079 137.37 126.904 137.37 130.003 137.37 133.203 137.675 136.486 138.267 133.326 129.093 133.999 119.39 134.63 110.419 134.677 109.77 134.722 109.122 134.767 108.476 131.058 107.134 127.581 105.165 124.422 102.673 118.687 107.197 111.902 110.002 104.597 110.451L104.597 110.517 87.7023 110.517 87.7023 110.451C79.1081 109.923 71.2356 106.133 64.9438 100.12 64.5834 99.9529 64.2244 99.7819 63.8706 99.6 52.1463 93.5779 43.9261 79.7838 43.9261 63.7621 43.9261 47.7404 52.1467 33.9463 63.8706 27.9246 64.2244 27.7428 64.5834 27.5722 64.9438 27.4045 71.2356 21.3917 79.1081 17.6018 87.7023 17.0737L87.7023 17.0084 104.597 17.0084 104.597 17.0737C111.902 17.5229 118.687 20.3279 124.422 24.8517 130.158 20.3284 136.943 17.5229 144.248 17.0737L144.248 17.0084 161.143 17.0084 161.143 17.0737C169.736 17.6023 177.609 21.3912 183.9 27.404 184.261 27.5717 184.62 27.7428 184.975 27.9251 196.699 33.9472 204.918 47.7413 204.918 63.7626 204.918 74.6478 201.121 84.5035 195.013 91.5955 195.379 92.1401 195.741 92.6884 196.101 93.241 201.923 102.162 207.066 112.143 210.731 123.141 214.292 133.823 216.887 141.798 218.826 147.839 220.328 152.521 221.435 156.04 222.289 158.755 225.082 167.663 225.082 167.663 227.528 172.271 228.479 174.071 229.109 176.03 229.413 178.024ZM184.799 99.6935C187.058 102.432 189.136 105.17 190.977 107.789 190.753 107.177 190.528 106.546 190.304 105.975 189.388 103.44 188.305 100.919 187.088 98.4038 186.34 98.8652 185.578 99.2993 184.799 99.6935ZM165.81 63.7616C165.81 67.512 168.22 70.5642 171.184 70.5642L176.377 70.5642C175.133 68.6674 174.386 66.3158 174.386 63.7616 174.386 61.2075 175.133 58.8563 176.377 56.9595L171.184 56.9595C168.22 56.9599 165.81 60.0107 165.81 63.7616ZM130.102 63.7616C130.102 82.0593 141.845 97.0849 156.719 98.5316 146.02 92.0475 138.678 78.9009 138.678 63.7616 138.678 48.6223 146.02 35.4766 156.719 28.9921 141.844 30.4393 130.102 45.4649 130.102 63.7616ZM55.4268 86.911C52.1176 80.0798 50.2147 72.1805 50.2147 63.7616 50.2147 55.3427 52.1171 47.4434 55.4268 40.6126 50.8762 46.7819 48.0853 54.8766 48.0853 63.7616 48.0853 72.6471 50.8762 80.7418 55.4268 86.911ZM85.6857 106.063C72.2632 98.5757 62.9497 82.4328 62.9497 63.7616 62.9497 45.0909 72.2632 28.948 85.6857 21.4603 68.0848 23.912 54.3734 41.9419 54.3734 63.7616 54.3738 85.5818 68.0848 103.612 85.6857 106.063ZM81.8253 80.1503 81.8427 80.1559C81.8352 80.1451 81.8277 80.1343 81.8206 80.123L81.8253 80.1503ZM109.273 80.1432C107.653 75.042 106.761 69.523 106.761 63.7616 106.761 56.0649 108.353 48.8032 111.153 42.3934 106.336 41.924 102.566 41.6374 101.524 41.6374 98.2417 41.6374 84.4405 50.077 81.7699 53.9707 79.0992 57.8851 80.7507 68.1797 87.9466 78.2506 88.1505 78.291 88.3751 78.3319 88.5786 78.3728 90.5557 77.6389 88.0082 63.1038 87.0295 55.8666 91.3512 67.6906 93.2062 79.2289 97.161 79.555L97.1812 79.555C101.136 79.8608 97.8132 69.1377 97.2832 60.1071 102.583 70.3406 103.48 79.4328 106.6 80.1056 107.607 80.1235 108.509 80.1395 109.273 80.1432ZM142.232 106.063C128.809 98.5757 119.496 82.4328 119.496 63.7616 119.496 45.0909 128.809 28.948 142.232 21.4603 124.631 23.912 110.92 41.9419 110.92 63.7616 110.92 85.5818 124.631 103.612 142.232 106.063ZM66.741 161.234 80.9443 176.371C82.1161 171.135 83.7216 166.358 86.1325 162.444 82.7688 161.241 79.6499 160.364 76.8162 159.794 71.9573 158.997 69.0419 159.674 66.741 161.234ZM194.361 126.055C192.114 121.716 189.686 117.174 187.229 112.733 185.255 109.165 183.263 105.665 181.329 102.387 175.518 107.079 168.601 109.993 161.142 110.451L161.142 110.517 149.739 110.517C150.813 114.429 152.158 117.794 153.654 120.589 156.22 125.384 159.201 128.543 161.906 130.051 156.692 128.271 152.907 124.878 150.219 121.393 149.46 120.408 148.774 119.417 148.186 118.452 148.186 119.615 148.215 120.743 148.253 121.853 148.276 122.513 148.299 123.174 148.329 123.813 149.288 141.65 174.199 157.898 190.14 159.835 184.065 162.342 178.071 162.363 172.69 161.159 174.301 163.442 175.85 166.134 177.052 169.334 160.193 155.41 145.801 152.352 121.847 149.132 129.635 147.236 135.771 145.87 141.663 145.809 136.811 144.362 131.837 143.485 126.903 143.485 114.121 143.485 101.829 149.254 93.7151 165.502 91.8399 169.416 90.372 173.106 89.1894 176.653 92.1659 170.985 96.467 164.788 102.644 159.834 102.644 159.834 95.4939 177.104 93.9491 190.23L96.062 192.482C103.181 191.343 125.215 187.367 142.906 179.364 142.906 179.364 130.197 196.455 111.476 208.909L113.65 211.227C118.868 209.298 124.448 206.935 130.206 204.011 130.02 204.366 127.28 209.203 117.525 215.356L120.158 218.163C134.586 215.464 158.15 207.671 170.162 192.839 164.21 191.33 157.747 190.352 151.326 190.577 162.92 187.419 174.858 186.414 185.247 185.596 187.736 185.4 190.163 185.212 192.444 185.011 200.965 184.277 213.686 176.776 197.622 169.334 202.663 170.639 205.335 168.758 206.142 164.712 207.641 157.188 202.672 142.16 194.361 126.055Z" fill="#9D72FF" fill-rule="nonzero" fill-opacity="1" transform="matrix(1 0 0 1.00039 280 218.913)"/><path d="M965.652 712.273 943.882 712.273C943.235 712.273 942.911 711.95 942.911 711.302L943.318 577.894C943.318 577.372 943.579 577.111 944.101 577.111L1006.25 577.111C1006.9 577.111 1007.22 577.372 1007.22 577.894L1007.22 599.852C1007.22 600.353 1006.96 600.604 1006.44 600.604L966.623 600.604 966.623 630.706 1006.44 630.706C1006.96 630.706 1007.22 631.03 1007.22 631.677L1007.41 653.635C1007.41 654.157 1007.08 654.418 1006.44 654.418L966.623 654.418 966.623 711.302C966.623 711.95 966.3 712.273 965.652 712.273ZM1049.54 712.273 1027.61 712.273C1026.96 712.273 1026.64 711.95 1026.64 711.302L1026.83 577.894C1026.83 577.372 1027.09 577.111 1027.61 577.111L1049.35 577.111C1049.87 577.111 1050.13 577.372 1050.13 577.894L1050.32 711.302C1050.32 711.95 1050.06 712.273 1049.54 712.273ZM1108.77 712.273 1086.84 712.273C1086.32 712.273 1086.06 711.95 1086.06 711.302L1086.06 600.604 1060.81 600.604C1060.17 600.604 1059.84 600.28 1059.84 599.633L1060.03 577.894C1060.03 577.372 1060.29 577.111 1060.81 577.111L1134.61 577.111C1135.26 577.111 1135.58 577.372 1135.58 577.894L1135.58 599.633C1135.58 600.28 1135.32 600.604 1134.8 600.604L1109.37 600.604 1109.55 711.302C1109.55 711.95 1109.29 712.273 1108.77 712.273ZM1168 712.273 1146.08 712.273C1145.43 712.273 1145.11 711.95 1145.11 711.302L1145.29 577.894C1145.29 577.372 1145.56 577.111 1146.08 577.111L1167.82 577.111C1168.34 577.111 1168.6 577.372 1168.6 577.894L1168.79 711.302C1168.79 711.95 1168.53 712.273 1168 712.273ZM1208.6 712.273 1186.64 712.273C1186.14 712.273 1185.89 711.95 1185.89 711.302L1186.27 577.894C1186.27 577.372 1186.53 577.111 1187.05 577.111L1210.73 577.111C1211.25 577.111 1211.71 577.372 1212.11 577.894L1229.78 603.517 1247.44 577.894C1247.84 577.372 1248.29 577.111 1248.79 577.111L1272.69 577.111C1273.21 577.111 1273.47 577.372 1273.47 577.894L1273.85 711.302C1273.85 711.95 1273.59 712.273 1273.06 712.273L1251.14 712.273C1250.62 712.273 1250.35 711.95 1250.35 711.302L1250.17 612.256 1229.78 641.795 1209.57 612.256 1209.38 711.302C1209.38 711.95 1209.12 712.273 1208.6 712.273ZM1353.66 712.273 1290.95 712.273C1290.43 712.273 1290.17 711.95 1290.17 711.302L1290.36 577.894C1290.36 577.372 1290.62 577.111 1291.14 577.111L1353.47 577.111C1354 577.111 1354.26 577.435 1354.26 578.082L1354.26 599.852C1354.26 600.353 1354 600.604 1353.47 600.604L1313.66 600.604 1313.66 630.925 1353.47 630.925C1354 630.925 1354.26 631.176 1354.26 631.677L1354.44 653.635C1354.44 654.157 1354.18 654.418 1353.66 654.418L1313.66 654.418 1313.66 688.405 1353.66 688.405C1354.18 688.405 1354.44 688.728 1354.44 689.376L1354.44 711.522C1354.44 712.023 1354.18 712.273 1353.66 712.273Z" fill="#9D72FF" fill-rule="nonzero" fill-opacity="1" transform="matrix(1 0 0 1.00039 -354.444 -303.567)"/><path d="M1036.88 786.95 1029.8 786.95C1029.64 786.95 1029.55 786.845 1029.55 786.636L1029.55 750.927 1021.41 750.927C1021.2 750.927 1021.1 750.823 1021.1 750.614L1021.16 743.597C1021.16 743.43 1021.24 743.347 1021.41 743.347L1045.21 743.347C1045.42 743.347 1045.53 743.43 1045.53 743.597L1045.53 750.614C1045.53 750.823 1045.44 750.927 1045.28 750.927L1037.07 750.927 1037.13 786.636C1037.13 786.845 1037.05 786.95 1036.88 786.95ZM1055.99 786.95 1048.91 786.95C1048.7 786.95 1048.6 786.845 1048.6 786.636L1048.66 743.597C1048.66 743.43 1048.74 743.347 1048.91 743.347L1055.93 743.347C1056.09 743.347 1056.18 743.43 1056.18 743.597L1056.24 786.636C1056.24 786.845 1056.16 786.95 1055.99 786.95ZM1069.08 786.95 1062 786.95C1061.84 786.95 1061.75 786.845 1061.75 786.636L1061.88 743.597C1061.88 743.43 1061.96 743.347 1062.13 743.347L1069.77 743.347C1069.94 743.347 1070.09 743.43 1070.21 743.597L1075.91 751.867 1081.61 743.597C1081.74 743.43 1081.88 743.347 1082.05 743.347L1089.76 743.347C1089.92 743.347 1090.01 743.43 1090.01 743.597L1090.13 786.636C1090.13 786.845 1090.05 786.95 1089.88 786.95L1082.8 786.95C1082.64 786.95 1082.55 786.845 1082.55 786.636L1082.49 754.686 1075.91 764.208 1069.4 754.686 1069.33 786.636C1069.33 786.845 1069.25 786.95 1069.08 786.95ZM1115.88 786.95 1095.65 786.95C1095.48 786.95 1095.4 786.845 1095.4 786.636L1095.46 743.597C1095.46 743.43 1095.54 743.347 1095.71 743.347L1115.82 743.347C1115.99 743.347 1116.07 743.451 1116.07 743.66L1116.07 750.677C1116.07 750.844 1115.99 750.927 1115.82 750.927L1102.98 750.927 1102.98 760.7 1115.82 760.7C1115.99 760.7 1116.07 760.784 1116.07 760.951L1116.13 768.03C1116.13 768.197 1116.05 768.281 1115.88 768.281L1102.98 768.281 1102.98 779.244 1115.88 779.244C1116.05 779.244 1116.13 779.348 1116.13 779.557L1116.13 786.699C1116.13 786.866 1116.05 786.95 1115.88 786.95ZM1144.32 786.95 1137.24 786.95C1137.08 786.95 1136.99 786.845 1136.99 786.636L1136.99 750.927 1128.85 750.927C1128.64 750.927 1128.54 750.823 1128.54 750.614L1128.6 743.597C1128.6 743.43 1128.68 743.347 1128.85 743.347L1152.66 743.347C1152.86 743.347 1152.97 743.43 1152.97 743.597L1152.97 750.614C1152.97 750.823 1152.89 750.927 1152.72 750.927L1144.51 750.927 1144.57 786.636C1144.57 786.845 1144.49 786.95 1144.32 786.95ZM1167 787.576C1164.75 787.576 1162.69 787.002 1160.83 785.853 1158.97 784.705 1157.48 783.18 1156.35 781.28 1155.22 779.38 1154.66 777.281 1154.66 774.984L1154.72 755.125C1154.72 752.827 1155.28 750.739 1156.38 748.86 1157.49 746.98 1158.98 745.477 1160.86 744.349 1162.74 743.221 1164.79 742.658 1167 742.658 1169.26 742.658 1171.3 743.221 1173.14 744.349 1174.98 745.477 1176.45 746.98 1177.56 748.86 1178.66 750.739 1179.22 752.827 1179.22 755.125L1179.28 774.984C1179.28 777.281 1178.73 779.38 1177.62 781.28 1176.51 783.18 1175.03 784.705 1173.17 785.853 1171.31 787.002 1169.26 787.576 1167 787.576ZM1167 779.996C1168.26 779.996 1169.35 779.484 1170.29 778.461 1171.23 777.438 1171.7 776.279 1171.7 774.984L1171.64 755.125C1171.64 753.746 1171.2 752.577 1170.32 751.616 1169.45 750.656 1168.34 750.175 1167 750.175 1165.71 750.175 1164.6 750.645 1163.68 751.585 1162.76 752.525 1162.3 753.705 1162.3 755.125L1162.3 774.984C1162.3 776.362 1162.76 777.542 1163.68 778.523 1164.6 779.505 1165.71 779.996 1167 779.996ZM1200.64 786.95 1193.63 786.95C1193.42 786.95 1193.31 786.845 1193.31 786.636L1193.44 743.597C1193.44 743.43 1193.52 743.347 1193.69 743.347L1213.74 743.347C1213.95 743.347 1214.05 743.43 1214.05 743.597L1214.05 750.677C1214.05 750.844 1213.97 750.927 1213.8 750.927L1200.96 750.927 1200.96 760.638 1213.8 760.638C1213.97 760.638 1214.05 760.742 1214.05 760.951L1214.11 768.03C1214.11 768.197 1214.01 768.281 1213.8 768.281L1200.96 768.281 1200.96 786.636C1200.96 786.845 1200.85 786.95 1200.64 786.95ZM1227.71 786.95 1220.63 786.95C1220.42 786.95 1220.32 786.845 1220.32 786.636L1220.38 743.597C1220.38 743.43 1220.46 743.347 1220.63 743.347L1227.65 743.347C1227.81 743.347 1227.9 743.43 1227.9 743.597L1227.96 786.636C1227.96 786.845 1227.87 786.95 1227.71 786.95ZM1246.82 786.95 1239.74 786.95C1239.57 786.95 1239.49 786.845 1239.49 786.636L1239.49 750.927 1231.34 750.927C1231.13 750.927 1231.03 750.823 1231.03 750.614L1231.09 743.597C1231.09 743.43 1231.17 743.347 1231.34 743.347L1255.15 743.347C1255.36 743.347 1255.46 743.43 1255.46 743.597L1255.46 750.614C1255.46 750.823 1255.38 750.927 1255.21 750.927L1247 750.927 1247.07 786.636C1247.07 786.845 1246.98 786.95 1246.82 786.95ZM1273.69 775.422 1269.43 775.422C1269.26 775.422 1269.16 775.318 1269.12 775.109L1267.8 760.7 1267.8 743.66C1267.8 743.451 1267.89 743.347 1268.05 743.347L1275.07 743.347C1275.28 743.347 1275.38 743.451 1275.38 743.66L1275.32 760.7 1274 775.109C1273.96 775.318 1273.86 775.422 1273.69 775.422ZM1275.07 786.95 1268.05 786.95C1267.89 786.95 1267.8 786.845 1267.8 786.636L1267.8 779.808C1267.8 779.641 1267.89 779.557 1268.05 779.557L1275.07 779.557C1275.24 779.557 1275.32 779.641 1275.32 779.808L1275.32 786.636C1275.32 786.845 1275.24 786.95 1275.07 786.95Z" fill="#9D72FF" fill-rule="nonzero" fill-opacity="1" transform="matrix(1 0 0 1.00039 -354.444 -303.567)"/></g></g></svg>